<svg width="300" height="300" viewBox="0 0 48 48" xmlns="http://www.w3.org/2000/svg">
    <!-- Прицел -->
    <circle cx="24" cy="24" r="22" fill="none" stroke="#000" stroke-width="2"/>
    <line x1="24" y1="2" x2="24" y2="12" stroke="#000" stroke-width="2"/>
    <line x1="24" y1="36" x2="24" y2="46" stroke="#000" stroke-width="2"/>
    <line x1="2" y1="24" x2="12" y2="24" stroke="#000" stroke-width="2"/>
    <line x1="36" y1="24" x2="46" y2="24" stroke="#000" stroke-width="2"/>

    <!-- Ваша иконка, масштабирована и смещена в центр прицела -->
    <g transform="translate(12 12) scale(0.5)">
        <polygon fill="#b71c1c" points="23.027,14.984 25.766,13.712 26.339,14.722 28.087,7.733 24.1,2.75 17.786,10.643"/>
        <polygon fill="#b71c1c" points="27.776,17.255 27.804,17.304 32.903,13.754 28.887,8.734"/>
        <polygon fill="#b71c1c" points="21.241,41.426 22.897,31.487 18.527,33.13 20.533,35.674 17.916,37.27"/>
        <polygon fill="#b71c1c" points="27.038,34.598 24.815,31.712 21.93,42.288 24.1,45 31.63,35.587"/>
        <polygon fill="#b71c1c" points="13.832,24.668 10.248,20.066 7.2,23.875 9.587,26.859"/>
        <path fill="#fafafa" d="M43.78,32.63l-9.294-5.914L32.83,24.24l5.342-3.053c1.402-0.676-1.257-6.715-3.686-5.529	l-7.668,4.978l-0.625-0.371c0,0-10.136-8.293-13.822-11.979C8.686,4.601,5,10.13,6.843,12.894c1.843,2.764,10.136,12.9,10.136,12.9	l1.375,0.282l-3.593,2.309l-0.497-1.021c-0.238-0.489-0.854-0.67-1.308-0.37c-0.651,0.43-1.308,0.988-1.505,1.564l-2.524,6.555	l16.29-6.533l2.819,3.664l9.517,2.379c1.006,0.252,2.063,0.211,3.047-0.117l3.075-1.025C44.055,33.355,44.117,32.845,43.78,32.63z"/>
        <path d="M44.049,32.208l-5.403-3.438l1.787-0.865l-0.436-0.9l-2.343,1.134l-2.828-1.799l-1.448-1.839l4.964-2.837	c0.109-0.003,0.211-0.025,0.3-0.076c0.252-0.145,0.373-0.474,0.376-0.916c0.011-0.064,0.03-0.115,0.035-0.187	c0.058-0.797-0.296-1.967-0.878-3.021c0.002,0,0.016-0.002,0.016-0.002s2.163,4.146,3.906,5.829	c1.743,1.683,2.223,0.541,1.262-0.841c-0.961-1.382-4.627-5.469-4.627-5.469s0.661-2.224,0.601-3.606s-1.142-2.103-1.202-0.721	c-0.06,1.382-0.06,3.786-0.06,3.786s-0.262-0.039-0.646-0.092c-0.29-0.35-0.602-0.662-0.935-0.887	c-0.752-0.508-1.52-0.595-2.276-0.221l-7.435,4.798l-0.269-0.159c-0.035-0.029-1.271-1.042-3.021-2.502l2.255-1.393l-0.525-0.852	l-2.539,1.568c-3.268-2.739-7.774-6.586-9.956-8.767c-1.623-1.623-3.525-1.828-5.091-0.546c-1.549,1.27-2.425,3.957-1.207,5.784	c1.835,2.753,9.825,12.525,10.165,12.939c0.072,0.089,0.174,0.15,0.286,0.174l0.166,0.034l-2.08,1.342l-0.251-0.515	c-0.179-0.367-0.507-0.64-0.901-0.747c-0.385-0.105-0.799-0.041-1.133,0.179c-0.926,0.613-1.498,1.226-1.695,1.801l-0.255,0.662	l-3.124-2.098c-0.151-0.103-0.346-0.113-0.508-0.029l-2.326,1.2c-0.146-0.075-0.245-0.217-0.267,0.38	c-0.021,0.162,0.039,0.325,0.161,0.436l4.529,4.096l-0.735,1.909c-0.071,0.186-0.026,0.396,0.115,0.536	c0.096,0.094,0.223,0.144,0.352,0.144c0.062,0,0.126-0.012,0.187-0.036l2.322-0.932l3.735,1.913	c0.071,0.036,0.149,0.055,0.228,0.055c0.062,0,0.126-0.012,0.186-0.035l1.908-0.762c0.156-0.062,0.271-0.199,0.305-0.364	c0.033-0.165-0.018-0.335-0.137-0.454l-2.034-2.034l9.507-3.816l2.503,3.393c0.069,0.094,0.168,0.16,0.281,0.188l9.517,2.379	c0.476,0.118,0.961,0.178,1.445,0.178c0.636,0,1.271-0.103,1.881-0.306l3.074-1.025c0.36-0.119,0.613-0.428,0.66-0.805	C44.539,32.773,44.369,32.413,44.049,32.208z"/>
    </g>
</svg>
